<mxfile host="app.diagrams.net" modified="2023-05-16T12:00:07.166Z" agent="Mozilla/5.0 (Windows NT 10.0; Win64; x64) AppleWebKit/537.36 (KHTML, like Gecko) Chrome/113.0.0.0 Safari/537.36" etag="ygw204AffHWiayvXAt9H" version="21.3.0" type="github">
  <diagram name="Page-1" id="StsqhVnkVrEMywvsspmI">
    <mxGraphModel dx="1257" dy="1849" grid="1" gridSize="10" guides="1" tooltips="1" connect="1" arrows="1" fold="1" page="1" pageScale="1" pageWidth="827" pageHeight="1169" math="0" shadow="0">
      <root>
        <mxCell id="0" />
        <mxCell id="1" parent="0" />
        <mxCell id="F5y_GuK5NR_GkK8rieV6-2" style="edgeStyle=orthogonalEdgeStyle;rounded=0;orthogonalLoop=1;jettySize=auto;html=1;exitX=0.5;exitY=1;exitDx=0;exitDy=0;" edge="1" parent="1" source="2HHhsxmkcTFIKpmXz-RJ-7" target="2HHhsxmkcTFIKpmXz-RJ-30">
          <mxGeometry relative="1" as="geometry" />
        </mxCell>
        <mxCell id="2HHhsxmkcTFIKpmXz-RJ-7" value="Persintation module" style="rounded=1;whiteSpace=wrap;html=1;" parent="1" vertex="1">
          <mxGeometry x="810" y="-140" width="160" height="30" as="geometry" />
        </mxCell>
        <mxCell id="2HHhsxmkcTFIKpmXz-RJ-12" style="edgeStyle=orthogonalEdgeStyle;rounded=0;orthogonalLoop=1;jettySize=auto;html=1;exitX=0;exitY=0.75;exitDx=0;exitDy=0;" parent="1" source="2HHhsxmkcTFIKpmXz-RJ-8" target="2HHhsxmkcTFIKpmXz-RJ-9" edge="1">
          <mxGeometry relative="1" as="geometry" />
        </mxCell>
        <mxCell id="2HHhsxmkcTFIKpmXz-RJ-13" style="edgeStyle=orthogonalEdgeStyle;rounded=0;orthogonalLoop=1;jettySize=auto;html=1;exitX=1;exitY=0.5;exitDx=0;exitDy=0;entryX=0;entryY=0.5;entryDx=0;entryDy=0;" parent="1" source="2HHhsxmkcTFIKpmXz-RJ-8" target="2HHhsxmkcTFIKpmXz-RJ-7" edge="1">
          <mxGeometry relative="1" as="geometry" />
        </mxCell>
        <mxCell id="2HHhsxmkcTFIKpmXz-RJ-8" value="AppModule" style="rounded=1;whiteSpace=wrap;html=1;" parent="1" vertex="1">
          <mxGeometry x="334" y="-150" width="160" height="30" as="geometry" />
        </mxCell>
        <mxCell id="2HHhsxmkcTFIKpmXz-RJ-24" style="edgeStyle=orthogonalEdgeStyle;rounded=0;orthogonalLoop=1;jettySize=auto;html=1;exitX=0.75;exitY=1;exitDx=0;exitDy=0;" parent="1" source="2HHhsxmkcTFIKpmXz-RJ-9" target="2HHhsxmkcTFIKpmXz-RJ-22" edge="1">
          <mxGeometry relative="1" as="geometry" />
        </mxCell>
        <mxCell id="2HHhsxmkcTFIKpmXz-RJ-9" value="Auth module" style="rounded=1;whiteSpace=wrap;html=1;" parent="1" vertex="1">
          <mxGeometry y="-100" width="160" height="30" as="geometry" />
        </mxCell>
        <mxCell id="2HHhsxmkcTFIKpmXz-RJ-14" style="edgeStyle=orthogonalEdgeStyle;rounded=0;orthogonalLoop=1;jettySize=auto;html=1;exitX=0.5;exitY=1;exitDx=0;exitDy=0;" parent="1" source="2HHhsxmkcTFIKpmXz-RJ-7" target="2HHhsxmkcTFIKpmXz-RJ-7" edge="1">
          <mxGeometry relative="1" as="geometry" />
        </mxCell>
        <mxCell id="2HHhsxmkcTFIKpmXz-RJ-15" value="&lt;div style=&quot;font-family: Consolas, &amp;quot;Courier New&amp;quot;, monospace; font-size: 14px; line-height: 19px;&quot;&gt;&lt;font color=&quot;#1f1f1f&quot;&gt;ColorsModule&lt;/font&gt;&lt;/div&gt;" style="rounded=1;whiteSpace=wrap;html=1;" parent="1" vertex="1">
          <mxGeometry x="680" y="80" width="160" height="30" as="geometry" />
        </mxCell>
        <mxCell id="2HHhsxmkcTFIKpmXz-RJ-16" value="Statistics" style="rounded=1;whiteSpace=wrap;html=1;" parent="1" vertex="1">
          <mxGeometry x="200" y="90" width="160" height="30" as="geometry" />
        </mxCell>
        <mxCell id="2HHhsxmkcTFIKpmXz-RJ-21" value="" style="shape=process;whiteSpace=wrap;html=1;backgroundOutline=1;" parent="1" vertex="1">
          <mxGeometry x="390" y="-350" width="180" height="30" as="geometry" />
        </mxCell>
        <mxCell id="2HHhsxmkcTFIKpmXz-RJ-22" value="login Component" style="shape=process;whiteSpace=wrap;html=1;backgroundOutline=1;" parent="1" vertex="1">
          <mxGeometry y="-20" width="180" height="30" as="geometry" />
        </mxCell>
        <mxCell id="2HHhsxmkcTFIKpmXz-RJ-27" value="&lt;div style=&quot;font-family: Consolas, &amp;quot;Courier New&amp;quot;, monospace; font-size: 14px; line-height: 19px;&quot;&gt;&lt;span style=&quot;background-color: rgb(255, 255, 255);&quot;&gt;&lt;font color=&quot;#212121&quot;&gt;AttributesModule&lt;/font&gt;&lt;/span&gt;&lt;/div&gt;" style="rounded=1;whiteSpace=wrap;html=1;" parent="1" vertex="1">
          <mxGeometry x="200" y="160" width="160" height="30" as="geometry" />
        </mxCell>
        <mxCell id="2HHhsxmkcTFIKpmXz-RJ-28" value="Auth module" style="rounded=1;whiteSpace=wrap;html=1;" parent="1" vertex="1">
          <mxGeometry x="294" y="340" width="160" height="30" as="geometry" />
        </mxCell>
        <mxCell id="2HHhsxmkcTFIKpmXz-RJ-29" value="&lt;div style=&quot;font-family: Consolas, &amp;quot;Courier New&amp;quot;, monospace; font-size: 14px; line-height: 19px;&quot;&gt;&lt;span style=&quot;background-color: rgb(255, 255, 255);&quot;&gt;&lt;font color=&quot;#1f1f1f&quot;&gt;ProductSetsModule&lt;/font&gt;&lt;/span&gt;&lt;/div&gt;" style="rounded=1;whiteSpace=wrap;html=1;" parent="1" vertex="1">
          <mxGeometry x="680" y="140" width="160" height="30" as="geometry" />
        </mxCell>
        <mxCell id="2HHhsxmkcTFIKpmXz-RJ-30" value="Dashboard&amp;nbsp;" style="rounded=1;whiteSpace=wrap;html=1;" parent="1" vertex="1">
          <mxGeometry x="448.57" y="30" width="160" height="30" as="geometry" />
        </mxCell>
        <mxCell id="2HHhsxmkcTFIKpmXz-RJ-31" style="edgeStyle=orthogonalEdgeStyle;rounded=0;orthogonalLoop=1;jettySize=auto;html=1;exitX=0.5;exitY=1;exitDx=0;exitDy=0;" parent="1" edge="1">
          <mxGeometry relative="1" as="geometry">
            <mxPoint x="400.00000000000006" y="170" as="sourcePoint" />
            <mxPoint x="400.00000000000006" y="170" as="targetPoint" />
          </mxGeometry>
        </mxCell>
        <mxCell id="F5y_GuK5NR_GkK8rieV6-6" value="Auth module" style="rounded=1;whiteSpace=wrap;html=1;" vertex="1" parent="1">
          <mxGeometry x="304" y="350" width="160" height="30" as="geometry" />
        </mxCell>
        <mxCell id="F5y_GuK5NR_GkK8rieV6-7" value="Auth module" style="rounded=1;whiteSpace=wrap;html=1;" vertex="1" parent="1">
          <mxGeometry x="314" y="360" width="160" height="30" as="geometry" />
        </mxCell>
        <mxCell id="F5y_GuK5NR_GkK8rieV6-8" value="Auth module" style="rounded=1;whiteSpace=wrap;html=1;" vertex="1" parent="1">
          <mxGeometry x="324" y="370" width="160" height="30" as="geometry" />
        </mxCell>
        <mxCell id="F5y_GuK5NR_GkK8rieV6-9" value="Auth module" style="rounded=1;whiteSpace=wrap;html=1;" vertex="1" parent="1">
          <mxGeometry x="334" y="380" width="160" height="30" as="geometry" />
        </mxCell>
      </root>
    </mxGraphModel>
  </diagram>
</mxfile>
